<svg width="18" height="19" viewBox="0 0 18 19" fill="none" xmlns="http://www.w3.org/2000/svg">
<path d="M6.99958 10.5001H1.00014C0.734888 10.5001 0.480498 10.6055 0.292935 10.7931C0.105372 10.9806 0 11.235 0 11.5003V17.4997C0 17.765 0.105372 18.0194 0.292935 18.2069C0.480498 18.3945 0.734888 18.4999 1.00014 18.4999H6.99958C7.26484 18.4999 7.51923 18.3945 7.70679 18.2069C7.89435 18.0194 7.99973 17.765 7.99973 17.4997V11.5003C7.99973 11.235 7.89435 10.9806 7.70679 10.7931C7.51923 10.6055 7.26484 10.5001 6.99958 10.5001ZM5.99944 16.4996H2.00028V12.5004H5.99944V16.4996ZM16.9996 0.500122H11.0002C10.7349 0.500122 10.4805 0.605494 10.2929 0.793057C10.1054 0.98062 10 1.23501 10 1.50026V7.49971C10 7.76496 10.1054 8.01935 10.2929 8.20691C10.4805 8.39447 10.7349 8.49985 11.0002 8.49985H16.9996C17.2648 8.49985 17.5192 8.39447 17.7068 8.20691C17.8944 8.01935 17.9997 7.76496 17.9997 7.49971V1.50026C17.9997 1.23501 17.8944 0.98062 17.7068 0.793057C17.5192 0.605494 17.2648 0.500122 16.9996 0.500122ZM15.9995 6.49956H12.0003V2.50041H16.0009L15.9995 6.49956ZM16.9996 13.4991H14.9993V11.5003C14.9993 11.235 14.8939 10.9806 14.7064 10.7931C14.5188 10.6055 14.2644 10.5001 13.9992 10.5001C13.7339 10.5001 13.4795 10.6055 13.292 10.7931C13.1044 10.9806 12.999 11.235 12.999 11.5003V13.4963H11.0002C10.7349 13.4963 10.4805 13.6017 10.2929 13.7893C10.1054 13.9768 10 14.2312 10 14.4965C10 14.7617 10.1054 15.0161 10.2929 15.2037C10.4805 15.3912 10.7349 15.4966 11.0002 15.4966H12.9962V17.4969C12.9962 17.7621 13.1016 18.0165 13.2891 18.2041C13.4767 18.3917 13.7311 18.497 13.9963 18.497C14.2616 18.497 14.516 18.3917 14.7035 18.2041C14.8911 18.0165 14.9965 17.7621 14.9965 17.4969V15.4994H16.9968C17.262 15.4994 17.5164 15.3941 17.704 15.2065C17.8915 15.0189 17.9969 14.7645 17.9969 14.4993C17.9969 14.234 17.8915 13.9796 17.704 13.7921C17.5164 13.6045 17.262 13.4991 16.9968 13.4991H16.9996ZM6.99958 0.500122H1.00014C0.734888 0.500122 0.480498 0.605494 0.292935 0.793057C0.105372 0.98062 0 1.23501 0 1.50026V7.49971C0 7.76496 0.105372 8.01935 0.292935 8.20691C0.480498 8.39447 0.734888 8.49985 1.00014 8.49985H6.99958C7.26484 8.49985 7.51923 8.39447 7.70679 8.20691C7.89435 8.01935 7.99973 7.76496 7.99973 7.49971V1.50026C7.99973 1.23501 7.89435 0.98062 7.70679 0.793057C7.51923 0.605494 7.26484 0.500122 6.99958 0.500122ZM5.99944 6.49956H2.00028V2.50041H5.99944V6.49956Z" fill="white"/>
</svg>
