<svg width="16" height="19" viewBox="0 0 16 19" fill="none" xmlns="http://www.w3.org/2000/svg">
<path d="M12.2108 18.5575H2.81789C2.07054 18.5575 1.3538 18.2712 0.82534 17.7616C0.296884 17.252 0 16.5609 0 15.8402L0 3.15975C0 2.43909 0.296884 1.74795 0.82534 1.23837C1.3538 0.728786 2.07054 0.442505 2.81789 0.442505L8.50063 0.442505C8.60984 0.455291 8.71526 0.489177 8.81059 0.542137H8.85219H8.89513C8.99363 0.584612 9.08428 0.642303 9.1635 0.712936L14.7993 6.14743C14.8725 6.22413 14.9327 6.31146 14.9777 6.40622V6.48773C15.0051 6.56711 15.0236 6.6491 15.0328 6.73229V15.8402C15.0328 16.1974 14.9597 16.5511 14.8179 16.881C14.676 17.2109 14.4681 17.5106 14.206 17.763C13.9439 18.0154 13.6328 18.2154 13.2904 18.3518C12.9481 18.4881 12.5812 18.558 12.2108 18.5575ZM2.81789 2.254C2.56877 2.254 2.32986 2.34943 2.1537 2.51929C1.97755 2.68915 1.87859 2.91953 1.87859 3.15975V15.8402C1.87859 16.0805 1.97755 16.3108 2.1537 16.4807C2.32986 16.6506 2.56877 16.746 2.81789 16.746H12.2108C12.46 16.746 12.6989 16.6506 12.875 16.4807C13.0512 16.3108 13.1501 16.0805 13.1501 15.8402V7.6885H10.3323C9.5849 7.6885 8.86816 7.40222 8.33971 6.89264C7.81125 6.38305 7.51436 5.69191 7.51436 4.97125V2.254H2.81789ZM9.39296 3.53111V4.97125C9.39296 5.21147 9.49192 5.44185 9.66807 5.61171C9.84422 5.78157 10.0831 5.877 10.3323 5.877H11.8257L9.39296 3.53111ZM10.3323 14.9345H4.69648C4.44736 14.9345 4.20845 14.8391 4.0323 14.6692C3.85614 14.4993 3.75718 14.269 3.75718 14.0287C3.75718 13.7885 3.85614 13.5581 4.0323 13.3883C4.20845 13.2184 4.44736 13.123 4.69648 13.123H10.3323C10.5814 13.123 10.8203 13.2184 10.9964 13.3883C11.1726 13.5581 11.2715 13.7885 11.2715 14.0287C11.2715 14.269 11.1726 14.4993 10.9964 14.6692C10.8203 14.8391 10.5814 14.9345 10.3323 14.9345ZM10.3323 11.3115H4.69648C4.57313 11.3115 4.45099 11.2881 4.33703 11.2426C4.22306 11.197 4.11952 11.1303 4.0323 11.0462C3.94507 10.9621 3.87589 10.8623 3.82868 10.7524C3.78148 10.6425 3.75718 10.5247 3.75718 10.4057C3.75718 10.2868 3.78148 10.169 3.82868 10.0591C3.87589 9.94924 3.94507 9.84939 4.0323 9.76529C4.11952 9.68118 4.22306 9.61446 4.33703 9.56894C4.45099 9.52343 4.57313 9.5 4.69648 9.5H10.3323C10.5814 9.5 10.8203 9.59542 10.9964 9.76529C11.1726 9.93515 11.2715 10.1655 11.2715 10.4057C11.2715 10.646 11.1726 10.8763 10.9964 11.0462C10.8203 11.2161 10.5814 11.3115 10.3323 11.3115ZM5.63577 7.6885H4.69648C4.44736 7.6885 4.20845 7.59307 4.0323 7.42321C3.85614 7.25335 3.75718 7.02297 3.75718 6.78275C3.75718 6.54253 3.85614 6.31215 4.0323 6.14229C4.20845 5.97243 4.44736 5.877 4.69648 5.877H5.63577C5.88489 5.877 6.1238 5.97243 6.29996 6.14229C6.47611 6.31215 6.57507 6.54253 6.57507 6.78275C6.57507 7.02297 6.47611 7.25335 6.29996 7.42321C6.1238 7.59307 5.88489 7.6885 5.63577 7.6885Z" fill="#74788D"/>
</svg>
