<svg width="18" height="15" viewBox="0 0 18 15" fill="none" xmlns="http://www.w3.org/2000/svg">
<path d="M9.2589 7.67993C9.69598 7.30151 10.0465 6.83351 10.2868 6.30767C10.5271 5.78183 10.6514 5.21046 10.6514 4.63233C10.6514 3.54576 10.2198 2.50369 9.45144 1.73536C8.68311 0.967041 7.64104 0.535401 6.55447 0.535401C5.46789 0.535401 4.42582 0.967041 3.6575 1.73536C2.88917 2.50369 2.45753 3.54576 2.45753 4.63233C2.45737 5.21064 2.58164 5.78221 2.82191 6.30824C3.06218 6.83427 3.41282 7.30244 3.85003 7.68097C2.70335 8.20052 1.73052 9.03925 1.04779 10.0969C0.365055 11.1546 0.00130275 12.3865 0 13.6454C3.23742e-09 13.8626 0.086306 14.071 0.239932 14.2246C0.393557 14.3783 0.601918 14.4646 0.819178 14.4646C1.03644 14.4646 1.2448 14.3783 1.39842 14.2246C1.55205 14.071 1.63836 13.8626 1.63836 13.6454C1.63836 12.9996 1.76554 12.3602 2.01265 11.7637C2.25976 11.1671 2.62196 10.625 3.07856 10.1684C3.53516 9.71182 4.07722 9.34963 4.6738 9.10252C5.27037 8.85541 5.90978 8.72822 6.55551 8.72822C7.20124 8.72822 7.84065 8.85541 8.43723 9.10252C9.0338 9.34963 9.57587 9.71182 10.0325 10.1684C10.4891 10.625 10.8513 11.1671 11.0984 11.7637C11.3455 12.3602 11.4727 12.9996 11.4727 13.6454C11.4727 13.8626 11.559 14.071 11.7126 14.2246C11.8662 14.3783 12.0746 14.4646 12.2918 14.4646C12.5091 14.4646 12.7175 14.3783 12.8711 14.2246C13.0247 14.071 13.111 13.8626 13.111 13.6454C13.1094 12.3866 12.7454 11.1548 12.0625 10.0973C11.3796 9.03984 10.4067 8.20134 9.25995 7.68202L9.2589 7.67993ZM6.55551 7.09091C6.06925 7.09091 5.59391 6.94672 5.1896 6.67657C4.78529 6.40642 4.47017 6.02244 4.28408 5.57319C4.098 5.12395 4.04931 4.62961 4.14417 4.15269C4.23904 3.67577 4.4732 3.2377 4.81703 2.89386C5.16087 2.55002 5.59895 2.31586 6.07587 2.221C6.55278 2.12613 7.04712 2.17482 7.49637 2.3609C7.94562 2.54699 8.32959 2.86211 8.59975 3.26642C8.8699 3.67073 9.01409 4.14607 9.01409 4.63233C9.01409 5.28439 8.75506 5.90974 8.29399 6.37081C7.83292 6.83188 7.20757 7.09091 6.55551 7.09091ZM14.536 7.35351C15.0606 6.76304 15.4033 6.0335 15.523 5.25274C15.6426 4.47198 15.5339 3.67329 15.2101 2.95284C14.8863 2.23239 14.3612 1.6209 13.6979 1.192C13.0346 0.763103 12.2615 0.535084 11.4716 0.535401C11.2544 0.535401 11.046 0.621707 10.8924 0.775332C10.7388 0.928958 10.6524 1.13732 10.6524 1.35458C10.6524 1.57184 10.7388 1.7802 10.8924 1.93382C11.046 2.08745 11.2544 2.17376 11.4716 2.17376C12.0122 2.17317 12.5378 2.35107 12.967 2.67984C13.3961 3.0086 13.7046 3.46984 13.8448 3.99194C13.9849 4.51404 13.9487 5.06779 13.7419 5.56724C13.5351 6.06668 13.1691 6.48387 12.7009 6.75404C12.5799 6.82377 12.4788 6.92332 12.4072 7.0432C12.3355 7.16308 12.2958 7.2993 12.2917 7.43889C12.2876 7.57848 12.3193 7.7168 12.3838 7.84066C12.4483 7.96453 12.5434 8.06983 12.6601 8.14653L12.9792 8.35577L13.0838 8.41331C14.0721 8.88194 14.9058 9.62338 15.4865 10.5502C16.0673 11.4771 16.3709 12.5506 16.3616 13.6443C16.3616 13.8616 16.4479 14.07 16.6015 14.2236C16.7551 14.3772 16.9635 14.4635 17.1808 14.4635C17.398 14.4635 17.6064 14.3772 17.76 14.2236C17.9136 14.07 17.9999 13.8616 17.9999 13.6443C18.0067 12.3873 17.6919 11.1494 17.0857 10.0482C16.4794 8.947 15.6017 8.01905 14.536 7.35246V7.35351Z" fill="#74788D"/>
</svg>
