<svg width="18" height="19" viewBox="0 0 18 19" fill="none" xmlns="http://www.w3.org/2000/svg">
<path d="M17.7695 12.6845L13.6922 8.62026C13.7788 8.20509 13.8225 7.78211 13.8225 7.358C13.8223 6.19477 13.5289 5.05036 12.9692 4.03063C12.4095 3.01091 11.6017 2.14879 10.6205 1.52404C9.63925 0.899289 8.51632 0.532079 7.35556 0.456377C6.1948 0.380674 5.0337 0.598926 3.97965 1.09094C3.84691 1.15165 3.73088 1.24365 3.64149 1.35904C3.5521 1.47442 3.49203 1.60977 3.46641 1.75346C3.4408 1.89716 3.45041 2.04492 3.49442 2.18409C3.53844 2.32326 3.61554 2.44968 3.71912 2.55252L7.64271 6.46047L6.017 8.08878L2.10904 4.1652C2.00526 4.06361 1.87871 3.98828 1.73993 3.94547C1.60115 3.90267 1.45415 3.89364 1.31117 3.91913C1.1682 3.94461 1.03338 4.00388 0.917931 4.092C0.802488 4.18012 0.709761 4.29453 0.64747 4.42573C0.15467 5.48312 -0.0626945 6.64796 0.0155959 7.81192C0.0938863 8.97587 0.465288 10.1011 1.09525 11.083C1.72522 12.0649 2.59328 12.8714 3.61869 13.4277C4.64411 13.984 5.79355 14.2719 6.96012 14.2646C7.38423 14.2647 7.80721 14.221 8.22238 14.1344L12.2893 18.2104C12.369 18.3116 12.4692 18.3948 12.5834 18.4545C12.6976 18.5142 12.8231 18.549 12.9518 18.5566C13.0804 18.5643 13.2092 18.5446 13.3296 18.4988C13.4501 18.4531 13.5594 18.3823 13.6506 18.2912C13.7417 18.2001 13.8124 18.0907 13.8582 17.9702C13.904 17.8498 13.9237 17.721 13.916 17.5924C13.9084 17.4637 13.8736 17.3382 13.8139 17.224C13.7542 17.1098 13.671 17.0096 13.5698 16.9299L9.14727 12.5165C9.03682 12.4067 8.89981 12.3274 8.74959 12.2863C8.59938 12.2452 8.44108 12.2437 8.29012 12.282C7.8545 12.3985 7.40581 12.4589 6.95491 12.4618C6.28035 12.4676 5.6113 12.34 4.98629 12.0861C4.36128 11.8323 3.79266 11.4573 3.31318 10.9828C2.83371 10.5083 2.45284 9.94363 2.19252 9.32129C1.93221 8.69896 1.79759 8.03128 1.79641 7.35669C1.7951 7.05474 1.81906 6.75321 1.86805 6.45526L5.40475 9.99977C5.48856 10.0843 5.58829 10.1515 5.69818 10.1973C5.80807 10.2431 5.92595 10.2667 6.045 10.2667C6.16406 10.2667 6.28194 10.2431 6.39183 10.1973C6.50172 10.1515 6.60145 10.0843 6.68526 9.99977L9.55109 7.10528C9.71361 6.93719 9.80446 6.71252 9.80446 6.47871C9.80446 6.24489 9.71361 6.02023 9.55109 5.85213L6.04435 2.31674C6.34236 2.26824 6.64385 2.24428 6.94579 2.24509C8.30058 2.24751 9.59906 2.78739 10.5562 3.74623C11.5133 4.70507 12.0509 6.0045 12.0509 7.3593C12.048 7.8102 11.9876 8.2589 11.8711 8.69452C11.8328 8.84547 11.8343 9.00377 11.8754 9.15399C11.9165 9.3042 11.9958 9.44121 12.1056 9.55166L16.5242 13.9703C16.6995 14.1083 16.9194 14.1772 17.1422 14.164C17.365 14.1508 17.5751 14.0563 17.7329 13.8985C17.8907 13.7407 17.9852 13.5305 17.9984 13.3078C18.0116 13.085 17.9427 12.8651 17.8047 12.6897L17.7695 12.6845Z" fill="#74788D"/>
</svg>
